  0
SECTION
  2
BLOCKS
  0
ENDSEC
  0
SECTION
  2
ENTITIES
  0
LINE
  8
0
 10
7.70369
 20
142
 11
15.4074
 21
142
  0
LINE
  8
0
 10
15.4074
 20
142
 11
15.4074
 21
138
  0
LINE
  8
0
 10
15.4074
 20
138
 11
23.1111
 21
138
  0
LINE
  8
0
 10
23.1111
 20
138
 11
23.1111
 21
142
  0
LINE
  8
0
 10
23.1111
 20
142
 11
30.8148
 21
142
  0
LINE
  8
0
 10
30.8148
 20
142
 11
30.8148
 21
138
  0
LINE
  8
0
 10
30.8148
 20
138
 11
38.5185
 21
138
  0
LINE
  8
0
 10
38.5185
 20
138
 11
38.5185
 21
142
  0
LINE
  8
0
 10
38.5185
 20
142
 11
46.2222
 21
142
  0
LINE
  8
0
 10
46.2222
 20
142
 11
46.2222
 21
138
  0
LINE
  8
0
 10
46.2222
 20
138
 11
53.9259
 21
138
  0
LINE
  8
0
 10
53.9259
 20
138
 11
53.9259
 21
142
  0
LINE
  8
0
 10
53.9259
 20
142
 11
61.6296
 21
142
  0
LINE
  8
0
 10
61.6296
 20
142
 11
61.6296
 21
138
  0
LINE
  8
0
 10
61.6296
 20
138
 11
69.3333
 21
138
  0
LINE
  8
0
 10
69.3333
 20
138
 11
69.3333
 21
142
  0
LINE
  8
0
 10
69.3333
 20
142
 11
77.037
 21
142
  0
LINE
  8
0
 10
77.037
 20
142
 11
77.037
 21
138
  0
LINE
  8
0
 10
77.037
 20
138
 11
84.7407
 21
138
  0
LINE
  8
0
 10
84.7407
 20
138
 11
84.7407
 21
142
  0
LINE
  8
0
 10
84.7407
 20
142
 11
92.4444
 21
142
  0
LINE
  8
0
 10
92.4444
 20
142
 11
92.4444
 21
138
  0
LINE
  8
0
 10
92.4444
 20
138
 11
100.148
 21
138
  0
LINE
  8
0
 10
100.148
 20
138
 11
100.148
 21
142
  0
LINE
  8
0
 10
100.148
 20
142
 11
107.852
 21
142
  0
LINE
  8
0
 10
107.852
 20
142
 11
107.852
 21
138
  0
LINE
  8
0
 10
107.852
 20
138
 11
115.556
 21
138
  0
LINE
  8
0
 10
115.556
 20
138
 11
115.556
 21
142
  0
LINE
  8
0
 10
115.556
 20
142
 11
123.259
 21
142
  0
LINE
  8
0
 10
123.259
 20
142
 11
123.259
 21
138
  0
LINE
  8
0
 10
123.259
 20
138
 11
130.963
 21
138
  0
LINE
  8
0
 10
130.963
 20
138
 11
130.963
 21
142
  0
LINE
  8
0
 10
130.963
 20
142
 11
138.667
 21
142
  0
LINE
  8
0
 10
138.667
 20
142
 11
138.667
 21
138
  0
LINE
  8
0
 10
138.667
 20
138
 11
146.37
 21
138
  0
LINE
  8
0
 10
146.37
 20
138
 11
146.37
 21
142
  0
LINE
  8
0
 10
146.37
 20
142
 11
154.074
 21
142
  0
LINE
  8
0
 10
154.074
 20
142
 11
154.074
 21
138
  0
LINE
  8
0
 10
154.074
 20
138
 11
161.778
 21
138
  0
LINE
  8
0
 10
161.778
 20
138
 11
161.778
 21
142
  0
LINE
  8
0
 10
161.778
 20
142
 11
169.481
 21
142
  0
LINE
  8
0
 10
169.481
 20
142
 11
169.481
 21
138
  0
LINE
  8
0
 10
169.481
 20
138
 11
177.185
 21
138
  0
LINE
  8
0
 10
177.185
 20
138
 11
177.185
 21
142
  0
LINE
  8
0
 10
177.185
 20
142
 11
184.889
 21
142
  0
LINE
  8
0
 10
184.889
 20
142
 11
184.889
 21
138
  0
LINE
  8
0
 10
184.889
 20
138
 11
192.593
 21
138
  0
LINE
  8
0
 10
192.593
 20
138
 11
192.593
 21
142
  0
LINE
  8
0
 10
192.593
 20
142
 11
200.296
 21
142
  0
LINE
  8
0
 10
200.296
 20
142
 11
200.296
 21
138
  0
LINE
  8
0
 10
200.296
 20
138
 11
208
 21
138
  0
LINE
  8
0
 10
208
 20
138
 11
208
 21
168.01
  0
LINE
  8
0
 10
208
 20
168.01
 11
200.296
 21
168.01
  0
LINE
  8
0
 10
200.296
 20
168.01
 11
200.296
 21
164
  0
LINE
  8
0
 10
200.296
 20
164
 11
192.593
 21
164
  0
LINE
  8
0
 10
192.593
 20
164
 11
192.593
 21
168.01
  0
LINE
  8
0
 10
192.593
 20
168.01
 11
184.889
 21
168.01
  0
LINE
  8
0
 10
184.889
 20
168.01
 11
184.889
 21
164
  0
LINE
  8
0
 10
184.889
 20
164
 11
177.185
 21
164
  0
LINE
  8
0
 10
177.185
 20
164
 11
177.185
 21
168.01
  0
LINE
  8
0
 10
177.185
 20
168.01
 11
169.481
 21
168.01
  0
LINE
  8
0
 10
169.481
 20
168.01
 11
169.481
 21
164
  0
LINE
  8
0
 10
169.481
 20
164
 11
161.778
 21
164
  0
LINE
  8
0
 10
161.778
 20
164
 11
161.778
 21
168.01
  0
LINE
  8
0
 10
161.778
 20
168.01
 11
154.074
 21
168.01
  0
LINE
  8
0
 10
154.074
 20
168.01
 11
154.074
 21
164
  0
LINE
  8
0
 10
154.074
 20
164
 11
146.37
 21
164
  0
LINE
  8
0
 10
146.37
 20
164
 11
146.37
 21
168.01
  0
LINE
  8
0
 10
146.37
 20
168.01
 11
138.667
 21
168.01
  0
LINE
  8
0
 10
138.667
 20
168.01
 11
138.667
 21
164
  0
LINE
  8
0
 10
138.667
 20
164
 11
130.963
 21
164
  0
LINE
  8
0
 10
130.963
 20
164
 11
130.963
 21
168.01
  0
LINE
  8
0
 10
130.963
 20
168.01
 11
123.259
 21
168.01
  0
LINE
  8
0
 10
123.259
 20
168.01
 11
123.259
 21
164
  0
LINE
  8
0
 10
123.259
 20
164
 11
115.556
 21
164
  0
LINE
  8
0
 10
115.556
 20
164
 11
115.556
 21
168.01
  0
LINE
  8
0
 10
115.556
 20
168.01
 11
107.852
 21
168.01
  0
LINE
  8
0
 10
107.852
 20
168.01
 11
107.852
 21
164
  0
LINE
  8
0
 10
107.852
 20
164
 11
100.148
 21
164
  0
LINE
  8
0
 10
100.148
 20
164
 11
100.148
 21
168.01
  0
LINE
  8
0
 10
100.148
 20
168.01
 11
92.4444
 21
168.01
  0
LINE
  8
0
 10
92.4444
 20
168.01
 11
92.4444
 21
164
  0
LINE
  8
0
 10
92.4444
 20
164
 11
84.7407
 21
164
  0
LINE
  8
0
 10
84.7407
 20
164
 11
84.7407
 21
168.01
  0
LINE
  8
0
 10
84.7407
 20
168.01
 11
77.037
 21
168.01
  0
LINE
  8
0
 10
77.037
 20
168.01
 11
77.037
 21
164
  0
LINE
  8
0
 10
77.037
 20
164
 11
69.3333
 21
164
  0
LINE
  8
0
 10
69.3333
 20
164
 11
69.3333
 21
168.01
  0
LINE
  8
0
 10
69.3333
 20
168.01
 11
61.6296
 21
168.01
  0
LINE
  8
0
 10
61.6296
 20
168.01
 11
61.6296
 21
164
  0
LINE
  8
0
 10
61.6296
 20
164
 11
53.9259
 21
164
  0
LINE
  8
0
 10
53.9259
 20
164
 11
53.9259
 21
168.01
  0
LINE
  8
0
 10
53.9259
 20
168.01
 11
46.2222
 21
168.01
  0
LINE
  8
0
 10
46.2222
 20
168.01
 11
46.2222
 21
164
  0
LINE
  8
0
 10
46.2222
 20
164
 11
38.5185
 21
164
  0
LINE
  8
0
 10
38.5185
 20
164
 11
38.5185
 21
168.01
  0
LINE
  8
0
 10
38.5185
 20
168.01
 11
30.8148
 21
168.01
  0
LINE
  8
0
 10
30.8148
 20
168.01
 11
30.8148
 21
164
  0
LINE
  8
0
 10
30.8148
 20
164
 11
23.1111
 21
164
  0
LINE
  8
0
 10
23.1111
 20
164
 11
23.1111
 21
168.01
  0
LINE
  8
0
 10
23.1111
 20
168.01
 11
15.4074
 21
168.01
  0
LINE
  8
0
 10
15.4074
 20
168.01
 11
15.4074
 21
164
  0
LINE
  8
0
 10
15.4074
 20
164
 11
7.70369
 21
164
  0
LINE
  8
0
 10
7.70369
 20
164
 11
7.70369
 21
168.01
  0
LINE
  8
0
 10
7.70369
 20
168.01
 11
0
 21
168.01
  0
LINE
  8
0
 10
0
 20
168.01
 11
0
 21
138
  0
LINE
  8
0
 10
0
 20
138
 11
7.70369
 21
138
  0
LINE
  8
0
 10
7.70369
 20
138
 11
7.70369
 21
142
  0
LINE
  8
0
 10
15.044
 20
144.119
 11
13.1687
 21
144.639
  0
LINE
  8
0
 10
13.1687
 20
144.639
 11
11.4493
 21
145.551
  0
LINE
  8
0
 10
11.4493
 20
145.551
 11
9.96603
 21
146.811
  0
LINE
  8
0
 10
9.96603
 20
146.811
 11
8.78828
 21
148.36
  0
LINE
  8
0
 10
8.78828
 20
148.36
 11
7.97112
 21
150.126
  0
LINE
  8
0
 10
7.97112
 20
150.126
 11
7.55275
 21
152.027
  0
LINE
  8
0
 10
7.55275
 20
152.027
 11
7.55275
 21
153.973
  0
LINE
  8
0
 10
7.55275
 20
153.973
 11
7.97112
 21
155.874
  0
LINE
  8
0
 10
7.97112
 20
155.874
 11
8.78828
 21
157.64
  0
LINE
  8
0
 10
8.78828
 20
157.64
 11
9.96603
 21
159.189
  0
LINE
  8
0
 10
9.96603
 20
159.189
 11
11.4493
 21
160.449
  0
LINE
  8
0
 10
11.4493
 20
160.449
 11
13.1687
 21
161.361
  0
LINE
  8
0
 10
13.1687
 20
161.361
 11
15.044
 21
161.881
  0
LINE
  8
0
 10
15.044
 20
161.881
 11
16.9872
 21
161.987
  0
LINE
  8
0
 10
16.9872
 20
161.987
 11
18.9077
 21
161.672
  0
LINE
  8
0
 10
18.9077
 20
161.672
 11
20.7157
 21
160.952
  0
LINE
  8
0
 10
20.7157
 20
160.952
 11
22.3265
 21
159.859
  0
LINE
  8
0
 10
22.3265
 20
159.859
 11
23.6648
 21
158.447
  0
LINE
  8
0
 10
23.6648
 20
158.447
 11
24.6682
 21
156.779
  0
LINE
  8
0
 10
24.6682
 20
156.779
 11
25.2896
 21
154.935
  0
LINE
  8
0
 10
25.2896
 20
154.935
 11
25.5
 21
153
  0
LINE
  8
0
 10
25.5
 20
153
 11
25.2896
 21
151.065
  0
LINE
  8
0
 10
25.2896
 20
151.065
 11
24.6682
 21
149.221
  0
LINE
  8
0
 10
24.6682
 20
149.221
 11
23.6648
 21
147.553
  0
LINE
  8
0
 10
23.6648
 20
147.553
 11
22.3265
 21
146.141
  0
LINE
  8
0
 10
22.3265
 20
146.141
 11
20.7157
 21
145.048
  0
LINE
  8
0
 10
20.7157
 20
145.048
 11
18.9077
 21
144.328
  0
LINE
  8
0
 10
18.9077
 20
144.328
 11
16.9872
 21
144.013
  0
LINE
  8
0
 10
16.9872
 20
144.013
 11
15.044
 21
144.119
  0
LINE
  8
0
 10
40.044
 20
144.119
 11
38.1687
 21
144.639
  0
LINE
  8
0
 10
38.1687
 20
144.639
 11
36.4493
 21
145.551
  0
LINE
  8
0
 10
36.4493
 20
145.551
 11
34.966
 21
146.811
  0
LINE
  8
0
 10
34.966
 20
146.811
 11
33.7883
 21
148.36
  0
LINE
  8
0
 10
33.7883
 20
148.36
 11
32.9711
 21
150.126
  0
LINE
  8
0
 10
32.9711
 20
150.126
 11
32.5527
 21
152.027
  0
LINE
  8
0
 10
32.5527
 20
152.027
 11
32.5527
 21
153.973
  0
LINE
  8
0
 10
32.5527
 20
153.973
 11
32.9711
 21
155.874
  0
LINE
  8
0
 10
32.9711
 20
155.874
 11
33.7883
 21
157.64
  0
LINE
  8
0
 10
33.7883
 20
157.64
 11
34.966
 21
159.189
  0
LINE
  8
0
 10
34.966
 20
159.189
 11
36.4493
 21
160.449
  0
LINE
  8
0
 10
36.4493
 20
160.449
 11
38.1687
 21
161.361
  0
LINE
  8
0
 10
38.1687
 20
161.361
 11
40.044
 21
161.881
  0
LINE
  8
0
 10
40.044
 20
161.881
 11
41.9872
 21
161.987
  0
LINE
  8
0
 10
41.9872
 20
161.987
 11
43.9077
 21
161.672
  0
LINE
  8
0
 10
43.9077
 20
161.672
 11
45.7157
 21
160.952
  0
LINE
  8
0
 10
45.7157
 20
160.952
 11
47.3265
 21
159.859
  0
LINE
  8
0
 10
47.3265
 20
159.859
 11
48.6648
 21
158.447
  0
LINE
  8
0
 10
48.6648
 20
158.447
 11
49.6682
 21
156.779
  0
LINE
  8
0
 10
49.6682
 20
156.779
 11
50.2896
 21
154.935
  0
LINE
  8
0
 10
50.2896
 20
154.935
 11
50.5
 21
153
  0
LINE
  8
0
 10
50.5
 20
153
 11
50.2896
 21
151.065
  0
LINE
  8
0
 10
50.2896
 20
151.065
 11
49.6682
 21
149.221
  0
LINE
  8
0
 10
49.6682
 20
149.221
 11
48.6648
 21
147.553
  0
LINE
  8
0
 10
48.6648
 20
147.553
 11
47.3265
 21
146.141
  0
LINE
  8
0
 10
47.3265
 20
146.141
 11
45.7157
 21
145.048
  0
LINE
  8
0
 10
45.7157
 20
145.048
 11
43.9077
 21
144.328
  0
LINE
  8
0
 10
43.9077
 20
144.328
 11
41.9872
 21
144.013
  0
LINE
  8
0
 10
41.9872
 20
144.013
 11
40.044
 21
144.119
  0
LINE
  8
0
 10
65.044
 20
144.119
 11
63.1687
 21
144.639
  0
LINE
  8
0
 10
63.1687
 20
144.639
 11
61.4493
 21
145.551
  0
LINE
  8
0
 10
61.4493
 20
145.551
 11
59.966
 21
146.811
  0
LINE
  8
0
 10
59.966
 20
146.811
 11
58.7883
 21
148.36
  0
LINE
  8
0
 10
58.7883
 20
148.36
 11
57.9711
 21
150.126
  0
LINE
  8
0
 10
57.9711
 20
150.126
 11
57.5527
 21
152.027
  0
LINE
  8
0
 10
57.5527
 20
152.027
 11
57.5527
 21
153.973
  0
LINE
  8
0
 10
57.5527
 20
153.973
 11
57.9711
 21
155.874
  0
LINE
  8
0
 10
57.9711
 20
155.874
 11
58.7883
 21
157.64
  0
LINE
  8
0
 10
58.7883
 20
157.64
 11
59.966
 21
159.189
  0
LINE
  8
0
 10
59.966
 20
159.189
 11
61.4493
 21
160.449
  0
LINE
  8
0
 10
61.4493
 20
160.449
 11
63.1687
 21
161.361
  0
LINE
  8
0
 10
63.1687
 20
161.361
 11
65.044
 21
161.881
  0
LINE
  8
0
 10
65.044
 20
161.881
 11
66.9872
 21
161.987
  0
LINE
  8
0
 10
66.9872
 20
161.987
 11
68.9077
 21
161.672
  0
LINE
  8
0
 10
68.9077
 20
161.672
 11
70.7157
 21
160.952
  0
LINE
  8
0
 10
70.7157
 20
160.952
 11
72.3265
 21
159.859
  0
LINE
  8
0
 10
72.3265
 20
159.859
 11
73.6648
 21
158.447
  0
LINE
  8
0
 10
73.6648
 20
158.447
 11
74.6682
 21
156.779
  0
LINE
  8
0
 10
74.6682
 20
156.779
 11
75.2896
 21
154.935
  0
LINE
  8
0
 10
75.2896
 20
154.935
 11
75.5
 21
153
  0
LINE
  8
0
 10
75.5
 20
153
 11
75.2896
 21
151.065
  0
LINE
  8
0
 10
75.2896
 20
151.065
 11
74.6682
 21
149.221
  0
LINE
  8
0
 10
74.6682
 20
149.221
 11
73.6648
 21
147.553
  0
LINE
  8
0
 10
73.6648
 20
147.553
 11
72.3265
 21
146.141
  0
LINE
  8
0
 10
72.3265
 20
146.141
 11
70.7157
 21
145.048
  0
LINE
  8
0
 10
70.7157
 20
145.048
 11
68.9077
 21
144.328
  0
LINE
  8
0
 10
68.9077
 20
144.328
 11
66.9872
 21
144.013
  0
LINE
  8
0
 10
66.9872
 20
144.013
 11
65.044
 21
144.119
  0
LINE
  8
0
 10
90.044
 20
144.119
 11
88.1687
 21
144.639
  0
LINE
  8
0
 10
88.1687
 20
144.639
 11
86.4493
 21
145.551
  0
LINE
  8
0
 10
86.4493
 20
145.551
 11
84.966
 21
146.811
  0
LINE
  8
0
 10
84.966
 20
146.811
 11
83.7883
 21
148.36
  0
LINE
  8
0
 10
83.7883
 20
148.36
 11
82.9711
 21
150.126
  0
LINE
  8
0
 10
82.9711
 20
150.126
 11
82.5527
 21
152.027
  0
LINE
  8
0
 10
82.5527
 20
152.027
 11
82.5527
 21
153.973
  0
LINE
  8
0
 10
82.5527
 20
153.973
 11
82.9711
 21
155.874
  0
LINE
  8
0
 10
82.9711
 20
155.874
 11
83.7883
 21
157.64
  0
LINE
  8
0
 10
83.7883
 20
157.64
 11
84.966
 21
159.189
  0
LINE
  8
0
 10
84.966
 20
159.189
 11
86.4493
 21
160.449
  0
LINE
  8
0
 10
86.4493
 20
160.449
 11
88.1687
 21
161.361
  0
LINE
  8
0
 10
88.1687
 20
161.361
 11
90.044
 21
161.881
  0
LINE
  8
0
 10
90.044
 20
161.881
 11
91.9872
 21
161.987
  0
LINE
  8
0
 10
91.9872
 20
161.987
 11
93.9077
 21
161.672
  0
LINE
  8
0
 10
93.9077
 20
161.672
 11
95.7157
 21
160.952
  0
LINE
  8
0
 10
95.7157
 20
160.952
 11
97.3265
 21
159.859
  0
LINE
  8
0
 10
97.3265
 20
159.859
 11
98.6648
 21
158.447
  0
LINE
  8
0
 10
98.6648
 20
158.447
 11
99.6682
 21
156.779
  0
LINE
  8
0
 10
99.6682
 20
156.779
 11
100.29
 21
154.935
  0
LINE
  8
0
 10
100.29
 20
154.935
 11
100.5
 21
153
  0
LINE
  8
0
 10
100.5
 20
153
 11
100.29
 21
151.065
  0
LINE
  8
0
 10
100.29
 20
151.065
 11
99.6682
 21
149.221
  0
LINE
  8
0
 10
99.6682
 20
149.221
 11
98.6648
 21
147.553
  0
LINE
  8
0
 10
98.6648
 20
147.553
 11
97.3265
 21
146.141
  0
LINE
  8
0
 10
97.3265
 20
146.141
 11
95.7157
 21
145.048
  0
LINE
  8
0
 10
95.7157
 20
145.048
 11
93.9077
 21
144.328
  0
LINE
  8
0
 10
93.9077
 20
144.328
 11
91.9872
 21
144.013
  0
LINE
  8
0
 10
91.9872
 20
144.013
 11
90.044
 21
144.119
  0
LINE
  8
0
 10
115.044
 20
144.119
 11
113.169
 21
144.639
  0
LINE
  8
0
 10
113.169
 20
144.639
 11
111.449
 21
145.551
  0
LINE
  8
0
 10
111.449
 20
145.551
 11
109.966
 21
146.811
  0
LINE
  8
0
 10
109.966
 20
146.811
 11
108.788
 21
148.36
  0
LINE
  8
0
 10
108.788
 20
148.36
 11
107.971
 21
150.126
  0
LINE
  8
0
 10
107.971
 20
150.126
 11
107.553
 21
152.027
  0
LINE
  8
0
 10
107.553
 20
152.027
 11
107.553
 21
153.973
  0
LINE
  8
0
 10
107.553
 20
153.973
 11
107.971
 21
155.874
  0
LINE
  8
0
 10
107.971
 20
155.874
 11
108.788
 21
157.64
  0
LINE
  8
0
 10
108.788
 20
157.64
 11
109.966
 21
159.189
  0
LINE
  8
0
 10
109.966
 20
159.189
 11
111.449
 21
160.449
  0
LINE
  8
0
 10
111.449
 20
160.449
 11
113.169
 21
161.361
  0
LINE
  8
0
 10
113.169
 20
161.361
 11
115.044
 21
161.881
  0
LINE
  8
0
 10
115.044
 20
161.881
 11
116.987
 21
161.987
  0
LINE
  8
0
 10
116.987
 20
161.987
 11
118.908
 21
161.672
  0
LINE
  8
0
 10
118.908
 20
161.672
 11
120.716
 21
160.952
  0
LINE
  8
0
 10
120.716
 20
160.952
 11
122.326
 21
159.859
  0
LINE
  8
0
 10
122.326
 20
159.859
 11
123.665
 21
158.447
  0
LINE
  8
0
 10
123.665
 20
158.447
 11
124.668
 21
156.779
  0
LINE
  8
0
 10
124.668
 20
156.779
 11
125.29
 21
154.935
  0
LINE
  8
0
 10
125.29
 20
154.935
 11
125.5
 21
153
  0
LINE
  8
0
 10
125.5
 20
153
 11
125.29
 21
151.065
  0
LINE
  8
0
 10
125.29
 20
151.065
 11
124.668
 21
149.221
  0
LINE
  8
0
 10
124.668
 20
149.221
 11
123.665
 21
147.553
  0
LINE
  8
0
 10
123.665
 20
147.553
 11
122.326
 21
146.141
  0
LINE
  8
0
 10
122.326
 20
146.141
 11
120.716
 21
145.048
  0
LINE
  8
0
 10
120.716
 20
145.048
 11
118.908
 21
144.328
  0
LINE
  8
0
 10
118.908
 20
144.328
 11
116.987
 21
144.013
  0
LINE
  8
0
 10
116.987
 20
144.013
 11
115.044
 21
144.119
  0
LINE
  8
0
 10
140.044
 20
144.119
 11
138.169
 21
144.639
  0
LINE
  8
0
 10
138.169
 20
144.639
 11
136.449
 21
145.551
  0
LINE
  8
0
 10
136.449
 20
145.551
 11
134.966
 21
146.811
  0
LINE
  8
0
 10
134.966
 20
146.811
 11
133.788
 21
148.36
  0
LINE
  8
0
 10
133.788
 20
148.36
 11
132.971
 21
150.126
  0
LINE
  8
0
 10
132.971
 20
150.126
 11
132.553
 21
152.027
  0
LINE
  8
0
 10
132.553
 20
152.027
 11
132.553
 21
153.973
  0
LINE
  8
0
 10
132.553
 20
153.973
 11
132.971
 21
155.874
  0
LINE
  8
0
 10
132.971
 20
155.874
 11
133.788
 21
157.64
  0
LINE
  8
0
 10
133.788
 20
157.64
 11
134.966
 21
159.189
  0
LINE
  8
0
 10
134.966
 20
159.189
 11
136.449
 21
160.449
  0
LINE
  8
0
 10
136.449
 20
160.449
 11
138.169
 21
161.361
  0
LINE
  8
0
 10
138.169
 20
161.361
 11
140.044
 21
161.881
  0
LINE
  8
0
 10
140.044
 20
161.881
 11
141.987
 21
161.987
  0
LINE
  8
0
 10
141.987
 20
161.987
 11
143.908
 21
161.672
  0
LINE
  8
0
 10
143.908
 20
161.672
 11
145.716
 21
160.952
  0
LINE
  8
0
 10
145.716
 20
160.952
 11
147.326
 21
159.859
  0
LINE
  8
0
 10
147.326
 20
159.859
 11
148.665
 21
158.447
  0
LINE
  8
0
 10
148.665
 20
158.447
 11
149.668
 21
156.779
  0
LINE
  8
0
 10
149.668
 20
156.779
 11
150.29
 21
154.935
  0
LINE
  8
0
 10
150.29
 20
154.935
 11
150.5
 21
153
  0
LINE
  8
0
 10
150.5
 20
153
 11
150.29
 21
151.065
  0
LINE
  8
0
 10
150.29
 20
151.065
 11
149.668
 21
149.221
  0
LINE
  8
0
 10
149.668
 20
149.221
 11
148.665
 21
147.553
  0
LINE
  8
0
 10
148.665
 20
147.553
 11
147.326
 21
146.141
  0
LINE
  8
0
 10
147.326
 20
146.141
 11
145.716
 21
145.048
  0
LINE
  8
0
 10
145.716
 20
145.048
 11
143.908
 21
144.328
  0
LINE
  8
0
 10
143.908
 20
144.328
 11
141.987
 21
144.013
  0
LINE
  8
0
 10
141.987
 20
144.013
 11
140.044
 21
144.119
  0
LINE
  8
0
 10
165.044
 20
144.119
 11
163.169
 21
144.639
  0
LINE
  8
0
 10
163.169
 20
144.639
 11
161.449
 21
145.551
  0
LINE
  8
0
 10
161.449
 20
145.551
 11
159.966
 21
146.811
  0
LINE
  8
0
 10
159.966
 20
146.811
 11
158.788
 21
148.36
  0
LINE
  8
0
 10
158.788
 20
148.36
 11
157.971
 21
150.126
  0
LINE
  8
0
 10
157.971
 20
150.126
 11
157.553
 21
152.027
  0
LINE
  8
0
 10
157.553
 20
152.027
 11
157.553
 21
153.973
  0
LINE
  8
0
 10
157.553
 20
153.973
 11
157.971
 21
155.874
  0
LINE
  8
0
 10
157.971
 20
155.874
 11
158.788
 21
157.64
  0
LINE
  8
0
 10
158.788
 20
157.64
 11
159.966
 21
159.189
  0
LINE
  8
0
 10
159.966
 20
159.189
 11
161.449
 21
160.449
  0
LINE
  8
0
 10
161.449
 20
160.449
 11
163.169
 21
161.361
  0
LINE
  8
0
 10
163.169
 20
161.361
 11
165.044
 21
161.881
  0
LINE
  8
0
 10
165.044
 20
161.881
 11
166.987
 21
161.987
  0
LINE
  8
0
 10
166.987
 20
161.987
 11
168.908
 21
161.672
  0
LINE
  8
0
 10
168.908
 20
161.672
 11
170.716
 21
160.952
  0
LINE
  8
0
 10
170.716
 20
160.952
 11
172.326
 21
159.859
  0
LINE
  8
0
 10
172.326
 20
159.859
 11
173.665
 21
158.447
  0
LINE
  8
0
 10
173.665
 20
158.447
 11
174.668
 21
156.779
  0
LINE
  8
0
 10
174.668
 20
156.779
 11
175.29
 21
154.935
  0
LINE
  8
0
 10
175.29
 20
154.935
 11
175.5
 21
153
  0
LINE
  8
0
 10
175.5
 20
153
 11
175.29
 21
151.065
  0
LINE
  8
0
 10
175.29
 20
151.065
 11
174.668
 21
149.221
  0
LINE
  8
0
 10
174.668
 20
149.221
 11
173.665
 21
147.553
  0
LINE
  8
0
 10
173.665
 20
147.553
 11
172.326
 21
146.141
  0
LINE
  8
0
 10
172.326
 20
146.141
 11
170.716
 21
145.048
  0
LINE
  8
0
 10
170.716
 20
145.048
 11
168.908
 21
144.328
  0
LINE
  8
0
 10
168.908
 20
144.328
 11
166.987
 21
144.013
  0
LINE
  8
0
 10
166.987
 20
144.013
 11
165.044
 21
144.119
  0
LINE
  8
0
 10
190.044
 20
144.119
 11
188.169
 21
144.639
  0
LINE
  8
0
 10
188.169
 20
144.639
 11
186.449
 21
145.551
  0
LINE
  8
0
 10
186.449
 20
145.551
 11
184.966
 21
146.811
  0
LINE
  8
0
 10
184.966
 20
146.811
 11
183.788
 21
148.36
  0
LINE
  8
0
 10
183.788
 20
148.36
 11
182.971
 21
150.126
  0
LINE
  8
0
 10
182.971
 20
150.126
 11
182.553
 21
152.027
  0
LINE
  8
0
 10
182.553
 20
152.027
 11
182.553
 21
153.973
  0
LINE
  8
0
 10
182.553
 20
153.973
 11
182.971
 21
155.874
  0
LINE
  8
0
 10
182.971
 20
155.874
 11
183.788
 21
157.64
  0
LINE
  8
0
 10
183.788
 20
157.64
 11
184.966
 21
159.189
  0
LINE
  8
0
 10
184.966
 20
159.189
 11
186.449
 21
160.449
  0
LINE
  8
0
 10
186.449
 20
160.449
 11
188.169
 21
161.361
  0
LINE
  8
0
 10
188.169
 20
161.361
 11
190.044
 21
161.881
  0
LINE
  8
0
 10
190.044
 20
161.881
 11
191.987
 21
161.987
  0
LINE
  8
0
 10
191.987
 20
161.987
 11
193.908
 21
161.672
  0
LINE
  8
0
 10
193.908
 20
161.672
 11
195.716
 21
160.952
  0
LINE
  8
0
 10
195.716
 20
160.952
 11
197.326
 21
159.859
  0
LINE
  8
0
 10
197.326
 20
159.859
 11
198.665
 21
158.447
  0
LINE
  8
0
 10
198.665
 20
158.447
 11
199.668
 21
156.779
  0
LINE
  8
0
 10
199.668
 20
156.779
 11
200.29
 21
154.935
  0
LINE
  8
0
 10
200.29
 20
154.935
 11
200.5
 21
153
  0
LINE
  8
0
 10
200.5
 20
153
 11
200.29
 21
151.065
  0
LINE
  8
0
 10
200.29
 20
151.065
 11
199.668
 21
149.221
  0
LINE
  8
0
 10
199.668
 20
149.221
 11
198.665
 21
147.553
  0
LINE
  8
0
 10
198.665
 20
147.553
 11
197.326
 21
146.141
  0
LINE
  8
0
 10
197.326
 20
146.141
 11
195.716
 21
145.048
  0
LINE
  8
0
 10
195.716
 20
145.048
 11
193.908
 21
144.328
  0
LINE
  8
0
 10
193.908
 20
144.328
 11
191.987
 21
144.013
  0
LINE
  8
0
 10
191.987
 20
144.013
 11
190.044
 21
144.119
  0
LINE
  8
0
 10
7.70369
 20
110
 11
15.4074
 21
110
  0
LINE
  8
0
 10
15.4074
 20
110
 11
15.4074
 21
106
  0
LINE
  8
0
 10
15.4074
 20
106
 11
23.1111
 21
106
  0
LINE
  8
0
 10
23.1111
 20
106
 11
23.1111
 21
110
  0
LINE
  8
0
 10
23.1111
 20
110
 11
30.8148
 21
110
  0
LINE
  8
0
 10
30.8148
 20
110
 11
30.8148
 21
106
  0
LINE
  8
0
 10
30.8148
 20
106
 11
38.5185
 21
106
  0
LINE
  8
0
 10
38.5185
 20
106
 11
38.5185
 21
110
  0
LINE
  8
0
 10
38.5185
 20
110
 11
46.2222
 21
110
  0
LINE
  8
0
 10
46.2222
 20
110
 11
46.2222
 21
106
  0
LINE
  8
0
 10
46.2222
 20
106
 11
53.9259
 21
106
  0
LINE
  8
0
 10
53.9259
 20
106
 11
53.9259
 21
110
  0
LINE
  8
0
 10
53.9259
 20
110
 11
61.6296
 21
110
  0
LINE
  8
0
 10
61.6296
 20
110
 11
61.6296
 21
106
  0
LINE
  8
0
 10
61.6296
 20
106
 11
69.3333
 21
106
  0
LINE
  8
0
 10
69.3333
 20
106
 11
69.3333
 21
110
  0
LINE
  8
0
 10
69.3333
 20
110
 11
77.037
 21
110
  0
LINE
  8
0
 10
77.037
 20
110
 11
77.037
 21
106
  0
LINE
  8
0
 10
77.037
 20
106
 11
84.7407
 21
106
  0
LINE
  8
0
 10
84.7407
 20
106
 11
84.7407
 21
110
  0
LINE
  8
0
 10
84.7407
 20
110
 11
92.4444
 21
110
  0
LINE
  8
0
 10
92.4444
 20
110
 11
92.4444
 21
106
  0
LINE
  8
0
 10
92.4444
 20
106
 11
100.148
 21
106
  0
LINE
  8
0
 10
100.148
 20
106
 11
100.148
 21
110
  0
LINE
  8
0
 10
100.148
 20
110
 11
107.852
 21
110
  0
LINE
  8
0
 10
107.852
 20
110
 11
107.852
 21
106
  0
LINE
  8
0
 10
107.852
 20
106
 11
115.556
 21
106
  0
LINE
  8
0
 10
115.556
 20
106
 11
115.556
 21
110
  0
LINE
  8
0
 10
115.556
 20
110
 11
123.259
 21
110
  0
LINE
  8
0
 10
123.259
 20
110
 11
123.259
 21
106
  0
LINE
  8
0
 10
123.259
 20
106
 11
130.963
 21
106
  0
LINE
  8
0
 10
130.963
 20
106
 11
130.963
 21
110
  0
LINE
  8
0
 10
130.963
 20
110
 11
138.667
 21
110
  0
LINE
  8
0
 10
138.667
 20
110
 11
138.667
 21
106
  0
LINE
  8
0
 10
138.667
 20
106
 11
146.37
 21
106
  0
LINE
  8
0
 10
146.37
 20
106
 11
146.37
 21
110
  0
LINE
  8
0
 10
146.37
 20
110
 11
154.074
 21
110
  0
LINE
  8
0
 10
154.074
 20
110
 11
154.074
 21
106
  0
LINE
  8
0
 10
154.074
 20
106
 11
161.778
 21
106
  0
LINE
  8
0
 10
161.778
 20
106
 11
161.778
 21
110
  0
LINE
  8
0
 10
161.778
 20
110
 11
169.481
 21
110
  0
LINE
  8
0
 10
169.481
 20
110
 11
169.481
 21
106
  0
LINE
  8
0
 10
169.481
 20
106
 11
177.185
 21
106
  0
LINE
  8
0
 10
177.185
 20
106
 11
177.185
 21
110
  0
LINE
  8
0
 10
177.185
 20
110
 11
184.889
 21
110
  0
LINE
  8
0
 10
184.889
 20
110
 11
184.889
 21
106
  0
LINE
  8
0
 10
184.889
 20
106
 11
192.593
 21
106
  0
LINE
  8
0
 10
192.593
 20
106
 11
192.593
 21
110
  0
LINE
  8
0
 10
192.593
 20
110
 11
200.296
 21
110
  0
LINE
  8
0
 10
200.296
 20
110
 11
200.296
 21
106
  0
LINE
  8
0
 10
200.296
 20
106
 11
208
 21
106
  0
LINE
  8
0
 10
208
 20
106
 11
208
 21
136.01
  0
LINE
  8
0
 10
208
 20
136.01
 11
200.296
 21
136.01
  0
LINE
  8
0
 10
200.296
 20
136.01
 11
200.296
 21
132
  0
LINE
  8
0
 10
200.296
 20
132
 11
192.593
 21
132
  0
LINE
  8
0
 10
192.593
 20
132
 11
192.593
 21
136.01
  0
LINE
  8
0
 10
192.593
 20
136.01
 11
184.889
 21
136.01
  0
LINE
  8
0
 10
184.889
 20
136.01
 11
184.889
 21
132
  0
LINE
  8
0
 10
184.889
 20
132
 11
177.185
 21
132
  0
LINE
  8
0
 10
177.185
 20
132
 11
177.185
 21
136.01
  0
LINE
  8
0
 10
177.185
 20
136.01
 11
169.481
 21
136.01
  0
LINE
  8
0
 10
169.481
 20
136.01
 11
169.481
 21
132
  0
LINE
  8
0
 10
169.481
 20
132
 11
161.778
 21
132
  0
LINE
  8
0
 10
161.778
 20
132
 11
161.778
 21
136.01
  0
LINE
  8
0
 10
161.778
 20
136.01
 11
154.074
 21
136.01
  0
LINE
  8
0
 10
154.074
 20
136.01
 11
154.074
 21
132
  0
LINE
  8
0
 10
154.074
 20
132
 11
146.37
 21
132
  0
LINE
  8
0
 10
146.37
 20
132
 11
146.37
 21
136.01
  0
LINE
  8
0
 10
146.37
 20
136.01
 11
138.667
 21
136.01
  0
LINE
  8
0
 10
138.667
 20
136.01
 11
138.667
 21
132
  0
LINE
  8
0
 10
138.667
 20
132
 11
130.963
 21
132
  0
LINE
  8
0
 10
130.963
 20
132
 11
130.963
 21
136.01
  0
LINE
  8
0
 10
130.963
 20
136.01
 11
123.259
 21
136.01
  0
LINE
  8
0
 10
123.259
 20
136.01
 11
123.259
 21
132
  0
LINE
  8
0
 10
123.259
 20
132
 11
115.556
 21
132
  0
LINE
  8
0
 10
115.556
 20
132
 11
115.556
 21
136.01
  0
LINE
  8
0
 10
115.556
 20
136.01
 11
107.852
 21
136.01
  0
LINE
  8
0
 10
107.852
 20
136.01
 11
107.852
 21
132
  0
LINE
  8
0
 10
107.852
 20
132
 11
100.148
 21
132
  0
LINE
  8
0
 10
100.148
 20
132
 11
100.148
 21
136.01
  0
LINE
  8
0
 10
100.148
 20
136.01
 11
92.4444
 21
136.01
  0
LINE
  8
0
 10
92.4444
 20
136.01
 11
92.4444
 21
132
  0
LINE
  8
0
 10
92.4444
 20
132
 11
84.7407
 21
132
  0
LINE
  8
0
 10
84.7407
 20
132
 11
84.7407
 21
136.01
  0
LINE
  8
0
 10
84.7407
 20
136.01
 11
77.037
 21
136.01
  0
LINE
  8
0
 10
77.037
 20
136.01
 11
77.037
 21
132
  0
LINE
  8
0
 10
77.037
 20
132
 11
69.3333
 21
132
  0
LINE
  8
0
 10
69.3333
 20
132
 11
69.3333
 21
136.01
  0
LINE
  8
0
 10
69.3333
 20
136.01
 11
61.6296
 21
136.01
  0
LINE
  8
0
 10
61.6296
 20
136.01
 11
61.6296
 21
132
  0
LINE
  8
0
 10
61.6296
 20
132
 11
53.9259
 21
132
  0
LINE
  8
0
 10
53.9259
 20
132
 11
53.9259
 21
136.01
  0
LINE
  8
0
 10
53.9259
 20
136.01
 11
46.2222
 21
136.01
  0
LINE
  8
0
 10
46.2222
 20
136.01
 11
46.2222
 21
132
  0
LINE
  8
0
 10
46.2222
 20
132
 11
38.5185
 21
132
  0
LINE
  8
0
 10
38.5185
 20
132
 11
38.5185
 21
136.01
  0
LINE
  8
0
 10
38.5185
 20
136.01
 11
30.8148
 21
136.01
  0
LINE
  8
0
 10
30.8148
 20
136.01
 11
30.8148
 21
132
  0
LINE
  8
0
 10
30.8148
 20
132
 11
23.1111
 21
132
  0
LINE
  8
0
 10
23.1111
 20
132
 11
23.1111
 21
136.01
  0
LINE
  8
0
 10
23.1111
 20
136.01
 11
15.4074
 21
136.01
  0
LINE
  8
0
 10
15.4074
 20
136.01
 11
15.4074
 21
132
  0
LINE
  8
0
 10
15.4074
 20
132
 11
7.70369
 21
132
  0
LINE
  8
0
 10
7.70369
 20
132
 11
7.70369
 21
136.01
  0
LINE
  8
0
 10
7.70369
 20
136.01
 11
0
 21
136.01
  0
LINE
  8
0
 10
0
 20
136.01
 11
0
 21
106
  0
LINE
  8
0
 10
0
 20
106
 11
7.70369
 21
106
  0
LINE
  8
0
 10
7.70369
 20
106
 11
7.70369
 21
110
  0
LINE
  8
0
 10
214
 20
110
 11
237
 21
110
  0
LINE
  8
0
 10
237
 20
110
 11
237
 21
106
  0
LINE
  8
0
 10
237
 20
106
 11
241
 21
106
  0
LINE
  8
0
 10
241
 20
106
 11
241
 21
110
  0
LINE
  8
0
 10
241
 20
110
 11
262
 21
110
  0
LINE
  8
0
 10
262
 20
110
 11
262
 21
106
  0
LINE
  8
0
 10
262
 20
106
 11
266
 21
106
  0
LINE
  8
0
 10
266
 20
106
 11
266
 21
110
  0
LINE
  8
0
 10
266
 20
110
 11
287
 21
110
  0
LINE
  8
0
 10
287
 20
110
 11
287
 21
106
  0
LINE
  8
0
 10
287
 20
106
 11
291
 21
106
  0
LINE
  8
0
 10
291
 20
106
 11
291
 21
110
  0
LINE
  8
0
 10
291
 20
110
 11
312
 21
110
  0
LINE
  8
0
 10
312
 20
110
 11
312
 21
106
  0
LINE
  8
0
 10
312
 20
106
 11
316
 21
106
  0
LINE
  8
0
 10
316
 20
106
 11
316
 21
110
  0
LINE
  8
0
 10
316
 20
110
 11
337
 21
110
  0
LINE
  8
0
 10
337
 20
110
 11
337
 21
106
  0
LINE
  8
0
 10
337
 20
106
 11
341
 21
106
  0
LINE
  8
0
 10
341
 20
106
 11
341
 21
110
  0
LINE
  8
0
 10
341
 20
110
 11
362
 21
110
  0
LINE
  8
0
 10
362
 20
110
 11
362
 21
106
  0
LINE
  8
0
 10
362
 20
106
 11
366
 21
106
  0
LINE
  8
0
 10
366
 20
106
 11
366
 21
110
  0
LINE
  8
0
 10
366
 20
110
 11
387
 21
110
  0
LINE
  8
0
 10
387
 20
110
 11
387
 21
106
  0
LINE
  8
0
 10
387
 20
106
 11
391
 21
106
  0
LINE
  8
0
 10
391
 20
106
 11
391
 21
110
  0
LINE
  8
0
 10
391
 20
110
 11
414
 21
110
  0
LINE
  8
0
 10
414
 20
110
 11
414
 21
106
  0
LINE
  8
0
 10
414
 20
106
 11
418
 21
106
  0
LINE
  8
0
 10
418
 20
106
 11
418
 21
136
  0
LINE
  8
0
 10
418
 20
136
 11
414
 21
136
  0
LINE
  8
0
 10
414
 20
136
 11
414
 21
132
  0
LINE
  8
0
 10
414
 20
132
 11
410
 21
132
  0
LINE
  8
0
 10
410
 20
132
 11
410
 21
136
  0
LINE
  8
0
 10
410
 20
136
 11
393
 21
136
  0
LINE
  8
0
 10
393
 20
136
 11
393
 21
132
  0
LINE
  8
0
 10
393
 20
132
 11
391
 21
132
  0
LINE
  8
0
 10
391
 20
132
 11
391
 21
136
  0
LINE
  8
0
 10
391
 20
136
 11
387
 21
136
  0
LINE
  8
0
 10
387
 20
136
 11
387
 21
132
  0
LINE
  8
0
 10
387
 20
132
 11
385
 21
132
  0
LINE
  8
0
 10
385
 20
132
 11
385
 21
136
  0
LINE
  8
0
 10
385
 20
136
 11
368
 21
136
  0
LINE
  8
0
 10
368
 20
136
 11
368
 21
132
  0
LINE
  8
0
 10
368
 20
132
 11
366
 21
132
  0
LINE
  8
0
 10
366
 20
132
 11
366
 21
136
  0
LINE
  8
0
 10
366
 20
136
 11
362
 21
136
  0
LINE
  8
0
 10
362
 20
136
 11
362
 21
132
  0
LINE
  8
0
 10
362
 20
132
 11
360
 21
132
  0
LINE
  8
0
 10
360
 20
132
 11
360
 21
136
  0
LINE
  8
0
 10
360
 20
136
 11
343
 21
136
  0
LINE
  8
0
 10
343
 20
136
 11
343
 21
132
  0
LINE
  8
0
 10
343
 20
132
 11
341
 21
132
  0
LINE
  8
0
 10
341
 20
132
 11
341
 21
136
  0
LINE
  8
0
 10
341
 20
136
 11
337
 21
136
  0
LINE
  8
0
 10
337
 20
136
 11
337
 21
132
  0
LINE
  8
0
 10
337
 20
132
 11
335
 21
132
  0
LINE
  8
0
 10
335
 20
132
 11
335
 21
136
  0
LINE
  8
0
 10
335
 20
136
 11
318
 21
136
  0
LINE
  8
0
 10
318
 20
136
 11
318
 21
132
  0
LINE
  8
0
 10
318
 20
132
 11
316
 21
132
  0
LINE
  8
0
 10
316
 20
132
 11
316
 21
136
  0
LINE
  8
0
 10
316
 20
136
 11
312
 21
136
  0
LINE
  8
0
 10
312
 20
136
 11
312
 21
132
  0
LINE
  8
0
 10
312
 20
132
 11
310
 21
132
  0
LINE
  8
0
 10
310
 20
132
 11
310
 21
136
  0
LINE
  8
0
 10
310
 20
136
 11
293
 21
136
  0
LINE
  8
0
 10
293
 20
136
 11
293
 21
132
  0
LINE
  8
0
 10
293
 20
132
 11
291
 21
132
  0
LINE
  8
0
 10
291
 20
132
 11
291
 21
136
  0
LINE
  8
0
 10
291
 20
136
 11
287
 21
136
  0
LINE
  8
0
 10
287
 20
136
 11
287
 21
132
  0
LINE
  8
0
 10
287
 20
132
 11
285
 21
132
  0
LINE
  8
0
 10
285
 20
132
 11
285
 21
136
  0
LINE
  8
0
 10
285
 20
136
 11
268
 21
136
  0
LINE
  8
0
 10
268
 20
136
 11
268
 21
132
  0
LINE
  8
0
 10
268
 20
132
 11
266
 21
132
  0
LINE
  8
0
 10
266
 20
132
 11
266
 21
136
  0
LINE
  8
0
 10
266
 20
136
 11
262
 21
136
  0
LINE
  8
0
 10
262
 20
136
 11
262
 21
132
  0
LINE
  8
0
 10
262
 20
132
 11
260
 21
132
  0
LINE
  8
0
 10
260
 20
132
 11
260
 21
136
  0
LINE
  8
0
 10
260
 20
136
 11
243
 21
136
  0
LINE
  8
0
 10
243
 20
136
 11
243
 21
132
  0
LINE
  8
0
 10
243
 20
132
 11
241
 21
132
  0
LINE
  8
0
 10
241
 20
132
 11
241
 21
136
  0
LINE
  8
0
 10
241
 20
136
 11
237
 21
136
  0
LINE
  8
0
 10
237
 20
136
 11
237
 21
132
  0
LINE
  8
0
 10
237
 20
132
 11
235
 21
132
  0
LINE
  8
0
 10
235
 20
132
 11
235
 21
136
  0
LINE
  8
0
 10
235
 20
136
 11
218
 21
136
  0
LINE
  8
0
 10
218
 20
136
 11
218
 21
132
  0
LINE
  8
0
 10
218
 20
132
 11
214
 21
132
  0
LINE
  8
0
 10
214
 20
132
 11
214
 21
136
  0
LINE
  8
0
 10
214
 20
136
 11
210
 21
136
  0
LINE
  8
0
 10
210
 20
136
 11
210
 21
106
  0
LINE
  8
0
 10
210
 20
106
 11
214
 21
106
  0
LINE
  8
0
 10
214
 20
106
 11
214
 21
110
  0
LINE
  8
0
 10
399.125
 20
116.886
 11
397.657
 21
118.208
  0
LINE
  8
0
 10
397.657
 20
118.208
 11
396.854
 21
120.012
  0
LINE
  8
0
 10
396.854
 20
120.012
 11
396.854
 21
121.988
  0
LINE
  8
0
 10
396.854
 20
121.988
 11
397.657
 21
123.792
  0
LINE
  8
0
 10
397.657
 20
123.792
 11
399.125
 21
125.114
  0
LINE
  8
0
 10
399.125
 20
125.114
 11
401.003
 21
125.724
  0
LINE
  8
0
 10
401.003
 20
125.724
 11
402.968
 21
125.518
  0
LINE
  8
0
 10
402.968
 20
125.518
 11
404.678
 21
124.53
  0
LINE
  8
0
 10
404.678
 20
124.53
 11
405.839
 21
122.932
  0
LINE
  8
0
 10
405.839
 20
122.932
 11
406.25
 21
121
  0
LINE
  8
0
 10
406.25
 20
121
 11
405.839
 21
119.068
  0
LINE
  8
0
 10
405.839
 20
119.068
 11
404.678
 21
117.47
  0
LINE
  8
0
 10
404.678
 20
117.47
 11
402.968
 21
116.482
  0
LINE
  8
0
 10
402.968
 20
116.482
 11
401.003
 21
116.276
  0
LINE
  8
0
 10
401.003
 20
116.276
 11
399.125
 21
116.886
  0
LINE
  8
0
 10
224.125
 20
116.886
 11
222.657
 21
118.208
  0
LINE
  8
0
 10
222.657
 20
118.208
 11
221.854
 21
120.012
  0
LINE
  8
0
 10
221.854
 20
120.012
 11
221.854
 21
121.988
  0
LINE
  8
0
 10
221.854
 20
121.988
 11
222.657
 21
123.792
  0
LINE
  8
0
 10
222.657
 20
123.792
 11
224.125
 21
125.114
  0
LINE
  8
0
 10
224.125
 20
125.114
 11
226.003
 21
125.724
  0
LINE
  8
0
 10
226.003
 20
125.724
 11
227.968
 21
125.518
  0
LINE
  8
0
 10
227.968
 20
125.518
 11
229.678
 21
124.53
  0
LINE
  8
0
 10
229.678
 20
124.53
 11
230.839
 21
122.932
  0
LINE
  8
0
 10
230.839
 20
122.932
 11
231.25
 21
121
  0
LINE
  8
0
 10
231.25
 20
121
 11
230.839
 21
119.068
  0
LINE
  8
0
 10
230.839
 20
119.068
 11
229.678
 21
117.47
  0
LINE
  8
0
 10
229.678
 20
117.47
 11
227.968
 21
116.482
  0
LINE
  8
0
 10
227.968
 20
116.482
 11
226.003
 21
116.276
  0
LINE
  8
0
 10
226.003
 20
116.276
 11
224.125
 21
116.886
  0
LINE
  8
0
 10
249.125
 20
116.886
 11
247.657
 21
118.208
  0
LINE
  8
0
 10
247.657
 20
118.208
 11
246.854
 21
120.012
  0
LINE
  8
0
 10
246.854
 20
120.012
 11
246.854
 21
121.988
  0
LINE
  8
0
 10
246.854
 20
121.988
 11
247.657
 21
123.792
  0
LINE
  8
0
 10
247.657
 20
123.792
 11
249.125
 21
125.114
  0
LINE
  8
0
 10
249.125
 20
125.114
 11
251.003
 21
125.724
  0
LINE
  8
0
 10
251.003
 20
125.724
 11
252.968
 21
125.518
  0
LINE
  8
0
 10
252.968
 20
125.518
 11
254.678
 21
124.53
  0
LINE
  8
0
 10
254.678
 20
124.53
 11
255.839
 21
122.932
  0
LINE
  8
0
 10
255.839
 20
122.932
 11
256.25
 21
121
  0
LINE
  8
0
 10
256.25
 20
121
 11
255.839
 21
119.068
  0
LINE
  8
0
 10
255.839
 20
119.068
 11
254.678
 21
117.47
  0
LINE
  8
0
 10
254.678
 20
117.47
 11
252.968
 21
116.482
  0
LINE
  8
0
 10
252.968
 20
116.482
 11
251.003
 21
116.276
  0
LINE
  8
0
 10
251.003
 20
116.276
 11
249.125
 21
116.886
  0
LINE
  8
0
 10
274.125
 20
116.886
 11
272.657
 21
118.208
  0
LINE
  8
0
 10
272.657
 20
118.208
 11
271.854
 21
120.012
  0
LINE
  8
0
 10
271.854
 20
120.012
 11
271.854
 21
121.988
  0
LINE
  8
0
 10
271.854
 20
121.988
 11
272.657
 21
123.792
  0
LINE
  8
0
 10
272.657
 20
123.792
 11
274.125
 21
125.114
  0
LINE
  8
0
 10
274.125
 20
125.114
 11
276.003
 21
125.724
  0
LINE
  8
0
 10
276.003
 20
125.724
 11
277.968
 21
125.518
  0
LINE
  8
0
 10
277.968
 20
125.518
 11
279.678
 21
124.53
  0
LINE
  8
0
 10
279.678
 20
124.53
 11
280.839
 21
122.932
  0
LINE
  8
0
 10
280.839
 20
122.932
 11
281.25
 21
121
  0
LINE
  8
0
 10
281.25
 20
121
 11
280.839
 21
119.068
  0
LINE
  8
0
 10
280.839
 20
119.068
 11
279.678
 21
117.47
  0
LINE
  8
0
 10
279.678
 20
117.47
 11
277.968
 21
116.482
  0
LINE
  8
0
 10
277.968
 20
116.482
 11
276.003
 21
116.276
  0
LINE
  8
0
 10
276.003
 20
116.276
 11
274.125
 21
116.886
  0
LINE
  8
0
 10
299.125
 20
116.886
 11
297.657
 21
118.208
  0
LINE
  8
0
 10
297.657
 20
118.208
 11
296.854
 21
120.012
  0
LINE
  8
0
 10
296.854
 20
120.012
 11
296.854
 21
121.988
  0
LINE
  8
0
 10
296.854
 20
121.988
 11
297.657
 21
123.792
  0
LINE
  8
0
 10
297.657
 20
123.792
 11
299.125
 21
125.114
  0
LINE
  8
0
 10
299.125
 20
125.114
 11
301.003
 21
125.724
  0
LINE
  8
0
 10
301.003
 20
125.724
 11
302.968
 21
125.518
  0
LINE
  8
0
 10
302.968
 20
125.518
 11
304.678
 21
124.53
  0
LINE
  8
0
 10
304.678
 20
124.53
 11
305.839
 21
122.932
  0
LINE
  8
0
 10
305.839
 20
122.932
 11
306.25
 21
121
  0
LINE
  8
0
 10
306.25
 20
121
 11
305.839
 21
119.068
  0
LINE
  8
0
 10
305.839
 20
119.068
 11
304.678
 21
117.47
  0
LINE
  8
0
 10
304.678
 20
117.47
 11
302.968
 21
116.482
  0
LINE
  8
0
 10
302.968
 20
116.482
 11
301.003
 21
116.276
  0
LINE
  8
0
 10
301.003
 20
116.276
 11
299.125
 21
116.886
  0
LINE
  8
0
 10
324.125
 20
116.886
 11
322.657
 21
118.208
  0
LINE
  8
0
 10
322.657
 20
118.208
 11
321.854
 21
120.012
  0
LINE
  8
0
 10
321.854
 20
120.012
 11
321.854
 21
121.988
  0
LINE
  8
0
 10
321.854
 20
121.988
 11
322.657
 21
123.792
  0
LINE
  8
0
 10
322.657
 20
123.792
 11
324.125
 21
125.114
  0
LINE
  8
0
 10
324.125
 20
125.114
 11
326.003
 21
125.724
  0
LINE
  8
0
 10
326.003
 20
125.724
 11
327.968
 21
125.518
  0
LINE
  8
0
 10
327.968
 20
125.518
 11
329.678
 21
124.53
  0
LINE
  8
0
 10
329.678
 20
124.53
 11
330.839
 21
122.932
  0
LINE
  8
0
 10
330.839
 20
122.932
 11
331.25
 21
121
  0
LINE
  8
0
 10
331.25
 20
121
 11
330.839
 21
119.068
  0
LINE
  8
0
 10
330.839
 20
119.068
 11
329.678
 21
117.47
  0
LINE
  8
0
 10
329.678
 20
117.47
 11
327.968
 21
116.482
  0
LINE
  8
0
 10
327.968
 20
116.482
 11
326.003
 21
116.276
  0
LINE
  8
0
 10
326.003
 20
116.276
 11
324.125
 21
116.886
  0
LINE
  8
0
 10
349.125
 20
116.886
 11
347.657
 21
118.208
  0
LINE
  8
0
 10
347.657
 20
118.208
 11
346.854
 21
120.012
  0
LINE
  8
0
 10
346.854
 20
120.012
 11
346.854
 21
121.988
  0
LINE
  8
0
 10
346.854
 20
121.988
 11
347.657
 21
123.792
  0
LINE
  8
0
 10
347.657
 20
123.792
 11
349.125
 21
125.114
  0
LINE
  8
0
 10
349.125
 20
125.114
 11
351.003
 21
125.724
  0
LINE
  8
0
 10
351.003
 20
125.724
 11
352.968
 21
125.518
  0
LINE
  8
0
 10
352.968
 20
125.518
 11
354.678
 21
124.53
  0
LINE
  8
0
 10
354.678
 20
124.53
 11
355.839
 21
122.932
  0
LINE
  8
0
 10
355.839
 20
122.932
 11
356.25
 21
121
  0
LINE
  8
0
 10
356.25
 20
121
 11
355.839
 21
119.068
  0
LINE
  8
0
 10
355.839
 20
119.068
 11
354.678
 21
117.47
  0
LINE
  8
0
 10
354.678
 20
117.47
 11
352.968
 21
116.482
  0
LINE
  8
0
 10
352.968
 20
116.482
 11
351.003
 21
116.276
  0
LINE
  8
0
 10
351.003
 20
116.276
 11
349.125
 21
116.886
  0
LINE
  8
0
 10
374.125
 20
116.886
 11
372.657
 21
118.208
  0
LINE
  8
0
 10
372.657
 20
118.208
 11
371.854
 21
120.012
  0
LINE
  8
0
 10
371.854
 20
120.012
 11
371.854
 21
121.988
  0
LINE
  8
0
 10
371.854
 20
121.988
 11
372.657
 21
123.792
  0
LINE
  8
0
 10
372.657
 20
123.792
 11
374.125
 21
125.114
  0
LINE
  8
0
 10
374.125
 20
125.114
 11
376.003
 21
125.724
  0
LINE
  8
0
 10
376.003
 20
125.724
 11
377.968
 21
125.518
  0
LINE
  8
0
 10
377.968
 20
125.518
 11
379.678
 21
124.53
  0
LINE
  8
0
 10
379.678
 20
124.53
 11
380.839
 21
122.932
  0
LINE
  8
0
 10
380.839
 20
122.932
 11
381.25
 21
121
  0
LINE
  8
0
 10
381.25
 20
121
 11
380.839
 21
119.068
  0
LINE
  8
0
 10
380.839
 20
119.068
 11
379.678
 21
117.47
  0
LINE
  8
0
 10
379.678
 20
117.47
 11
377.968
 21
116.482
  0
LINE
  8
0
 10
377.968
 20
116.482
 11
376.003
 21
116.276
  0
LINE
  8
0
 10
376.003
 20
116.276
 11
374.125
 21
116.886
  0
LINE
  8
0
 10
225.407
 20
4
 11
233.111
 21
4
  0
LINE
  8
0
 10
233.111
 20
4
 11
233.111
 21
0
  0
LINE
  8
0
 10
233.111
 20
0
 11
240.815
 21
0
  0
LINE
  8
0
 10
240.815
 20
0
 11
240.815
 21
4
  0
LINE
  8
0
 10
240.815
 20
4
 11
248.519
 21
4
  0
LINE
  8
0
 10
248.519
 20
4
 11
248.519
 21
0
  0
LINE
  8
0
 10
248.519
 20
0
 11
256.222
 21
0
  0
LINE
  8
0
 10
256.222
 20
0
 11
256.222
 21
4
  0
LINE
  8
0
 10
256.222
 20
4
 11
263.926
 21
4
  0
LINE
  8
0
 10
263.926
 20
4
 11
263.926
 21
0
  0
LINE
  8
0
 10
263.926
 20
0
 11
271.63
 21
0
  0
LINE
  8
0
 10
271.63
 20
0
 11
271.63
 21
4
  0
LINE
  8
0
 10
271.63
 20
4
 11
279.333
 21
4
  0
LINE
  8
0
 10
279.333
 20
4
 11
279.333
 21
0
  0
LINE
  8
0
 10
279.333
 20
0
 11
287.037
 21
0
  0
LINE
  8
0
 10
287.037
 20
0
 11
287.037
 21
4
  0
LINE
  8
0
 10
287.037
 20
4
 11
294.741
 21
4
  0
LINE
  8
0
 10
294.741
 20
4
 11
294.741
 21
0
  0
LINE
  8
0
 10
294.741
 20
0
 11
302.444
 21
0
  0
LINE
  8
0
 10
302.444
 20
0
 11
302.444
 21
4
  0
LINE
  8
0
 10
302.444
 20
4
 11
310.148
 21
4
  0
LINE
  8
0
 10
310.148
 20
4
 11
310.148
 21
0
  0
LINE
  8
0
 10
310.148
 20
0
 11
317.852
 21
0
  0
LINE
  8
0
 10
317.852
 20
0
 11
317.852
 21
4
  0
LINE
  8
0
 10
317.852
 20
4
 11
325.556
 21
4
  0
LINE
  8
0
 10
325.556
 20
4
 11
325.556
 21
0
  0
LINE
  8
0
 10
325.556
 20
0
 11
333.259
 21
0
  0
LINE
  8
0
 10
333.259
 20
0
 11
333.259
 21
4
  0
LINE
  8
0
 10
333.259
 20
4
 11
340.963
 21
4
  0
LINE
  8
0
 10
340.963
 20
4
 11
340.963
 21
0
  0
LINE
  8
0
 10
340.963
 20
0
 11
348.667
 21
0
  0
LINE
  8
0
 10
348.667
 20
0
 11
348.667
 21
4
  0
LINE
  8
0
 10
348.667
 20
4
 11
356.37
 21
4
  0
LINE
  8
0
 10
356.37
 20
4
 11
356.37
 21
0
  0
LINE
  8
0
 10
356.37
 20
0
 11
364.074
 21
0
  0
LINE
  8
0
 10
364.074
 20
0
 11
364.074
 21
4
  0
LINE
  8
0
 10
364.074
 20
4
 11
371.778
 21
4
  0
LINE
  8
0
 10
371.778
 20
4
 11
371.778
 21
0
  0
LINE
  8
0
 10
371.778
 20
0
 11
379.481
 21
0
  0
LINE
  8
0
 10
379.481
 20
0
 11
379.481
 21
4
  0
LINE
  8
0
 10
379.481
 20
4
 11
387.185
 21
4
  0
LINE
  8
0
 10
387.185
 20
4
 11
387.185
 21
0
  0
LINE
  8
0
 10
387.185
 20
0
 11
394.889
 21
0
  0
LINE
  8
0
 10
394.889
 20
0
 11
394.889
 21
4
  0
LINE
  8
0
 10
394.889
 20
4
 11
402.593
 21
4
  0
LINE
  8
0
 10
402.593
 20
4
 11
402.593
 21
0
  0
LINE
  8
0
 10
402.593
 20
0
 11
410.296
 21
0
  0
LINE
  8
0
 10
410.296
 20
0
 11
410.296
 21
4
  0
LINE
  8
0
 10
410.296
 20
4
 11
418
 21
4
  0
LINE
  8
0
 10
418
 20
4
 11
418
 21
35
  0
LINE
  8
0
 10
418
 20
35
 11
414
 21
35
  0
LINE
  8
0
 10
414
 20
35
 11
414
 21
39
  0
LINE
  8
0
 10
414
 20
39
 11
418
 21
39
  0
LINE
  8
0
 10
418
 20
39
 11
418
 21
96
  0
LINE
  8
0
 10
418
 20
96
 11
410.296
 21
96
  0
LINE
  8
0
 10
410.296
 20
96
 11
410.296
 21
100.01
  0
LINE
  8
0
 10
410.296
 20
100.01
 11
402.593
 21
100.01
  0
LINE
  8
0
 10
402.593
 20
100.01
 11
402.593
 21
96
  0
LINE
  8
0
 10
402.593
 20
96
 11
394.889
 21
96
  0
LINE
  8
0
 10
394.889
 20
96
 11
394.889
 21
100.01
  0
LINE
  8
0
 10
394.889
 20
100.01
 11
387.185
 21
100.01
  0
LINE
  8
0
 10
387.185
 20
100.01
 11
387.185
 21
96
  0
LINE
  8
0
 10
387.185
 20
96
 11
379.481
 21
96
  0
LINE
  8
0
 10
379.481
 20
96
 11
379.481
 21
100.01
  0
LINE
  8
0
 10
379.481
 20
100.01
 11
371.778
 21
100.01
  0
LINE
  8
0
 10
371.778
 20
100.01
 11
371.778
 21
96
  0
LINE
  8
0
 10
371.778
 20
96
 11
364.074
 21
96
  0
LINE
  8
0
 10
364.074
 20
96
 11
364.074
 21
100.01
  0
LINE
  8
0
 10
364.074
 20
100.01
 11
356.37
 21
100.01
  0
LINE
  8
0
 10
356.37
 20
100.01
 11
356.37
 21
96
  0
LINE
  8
0
 10
356.37
 20
96
 11
348.667
 21
96
  0
LINE
  8
0
 10
348.667
 20
96
 11
348.667
 21
100.01
  0
LINE
  8
0
 10
348.667
 20
100.01
 11
340.963
 21
100.01
  0
LINE
  8
0
 10
340.963
 20
100.01
 11
340.963
 21
96
  0
LINE
  8
0
 10
340.963
 20
96
 11
333.259
 21
96
  0
LINE
  8
0
 10
333.259
 20
96
 11
333.259
 21
100.01
  0
LINE
  8
0
 10
333.259
 20
100.01
 11
325.556
 21
100.01
  0
LINE
  8
0
 10
325.556
 20
100.01
 11
325.556
 21
96
  0
LINE
  8
0
 10
325.556
 20
96
 11
317.852
 21
96
  0
LINE
  8
0
 10
317.852
 20
96
 11
317.852
 21
100.01
  0
LINE
  8
0
 10
317.852
 20
100.01
 11
310.148
 21
100.01
  0
LINE
  8
0
 10
310.148
 20
100.01
 11
310.148
 21
96
  0
LINE
  8
0
 10
310.148
 20
96
 11
302.444
 21
96
  0
LINE
  8
0
 10
302.444
 20
96
 11
302.444
 21
100.01
  0
LINE
  8
0
 10
302.444
 20
100.01
 11
294.741
 21
100.01
  0
LINE
  8
0
 10
294.741
 20
100.01
 11
294.741
 21
96
  0
LINE
  8
0
 10
294.741
 20
96
 11
287.037
 21
96
  0
LINE
  8
0
 10
287.037
 20
96
 11
287.037
 21
100.01
  0
LINE
  8
0
 10
287.037
 20
100.01
 11
279.333
 21
100.01
  0
LINE
  8
0
 10
279.333
 20
100.01
 11
279.333
 21
96
  0
LINE
  8
0
 10
279.333
 20
96
 11
271.63
 21
96
  0
LINE
  8
0
 10
271.63
 20
96
 11
271.63
 21
100.01
  0
LINE
  8
0
 10
271.63
 20
100.01
 11
263.926
 21
100.01
  0
LINE
  8
0
 10
263.926
 20
100.01
 11
263.926
 21
96
  0
LINE
  8
0
 10
263.926
 20
96
 11
256.222
 21
96
  0
LINE
  8
0
 10
256.222
 20
96
 11
256.222
 21
100.01
  0
LINE
  8
0
 10
256.222
 20
100.01
 11
248.519
 21
100.01
  0
LINE
  8
0
 10
248.519
 20
100.01
 11
248.519
 21
96
  0
LINE
  8
0
 10
248.519
 20
96
 11
240.815
 21
96
  0
LINE
  8
0
 10
240.815
 20
96
 11
240.815
 21
100.01
  0
LINE
  8
0
 10
240.815
 20
100.01
 11
233.111
 21
100.01
  0
LINE
  8
0
 10
233.111
 20
100.01
 11
233.111
 21
96
  0
LINE
  8
0
 10
233.111
 20
96
 11
225.407
 21
96
  0
LINE
  8
0
 10
225.407
 20
96
 11
225.407
 21
100.01
  0
LINE
  8
0
 10
225.407
 20
100.01
 11
217.704
 21
100.01
  0
LINE
  8
0
 10
217.704
 20
100.01
 11
217.704
 21
96
  0
LINE
  8
0
 10
217.704
 20
96
 11
210
 21
96
  0
LINE
  8
0
 10
210
 20
96
 11
210
 21
39
  0
LINE
  8
0
 10
210
 20
39
 11
214
 21
39
  0
LINE
  8
0
 10
214
 20
39
 11
214
 21
35
  0
LINE
  8
0
 10
214
 20
35
 11
210
 21
35
  0
LINE
  8
0
 10
210
 20
35
 11
210
 21
4
  0
LINE
  8
0
 10
210
 20
4
 11
217.704
 21
4
  0
LINE
  8
0
 10
217.704
 20
4
 11
217.704
 21
0
  0
LINE
  8
0
 10
217.704
 20
0
 11
225.407
 21
0
  0
LINE
  8
0
 10
225.407
 20
0
 11
225.407
 21
4
  0
LINE
  8
0
 10
368
 20
8
 11
368
 21
92
  0
LINE
  8
0
 10
368
 20
92
 11
385
 21
92
  0
LINE
  8
0
 10
385
 20
92
 11
385
 21
8
  0
LINE
  8
0
 10
385
 20
8
 11
368
 21
8
  0
LINE
  8
0
 10
393
 20
8
 11
393
 21
92
  0
LINE
  8
0
 10
393
 20
92
 11
410
 21
92
  0
LINE
  8
0
 10
410
 20
92
 11
410
 21
8
  0
LINE
  8
0
 10
410
 20
8
 11
393
 21
8
  0
LINE
  8
0
 10
343
 20
8
 11
343
 21
92
  0
LINE
  8
0
 10
343
 20
92
 11
360
 21
92
  0
LINE
  8
0
 10
360
 20
92
 11
360
 21
8
  0
LINE
  8
0
 10
360
 20
8
 11
343
 21
8
  0
LINE
  8
0
 10
318
 20
8
 11
318
 21
92
  0
LINE
  8
0
 10
318
 20
92
 11
335
 21
92
  0
LINE
  8
0
 10
335
 20
92
 11
335
 21
8
  0
LINE
  8
0
 10
335
 20
8
 11
318
 21
8
  0
LINE
  8
0
 10
293
 20
8
 11
293
 21
92
  0
LINE
  8
0
 10
293
 20
92
 11
310
 21
92
  0
LINE
  8
0
 10
310
 20
92
 11
310
 21
8
  0
LINE
  8
0
 10
310
 20
8
 11
293
 21
8
  0
LINE
  8
0
 10
268
 20
8
 11
268
 21
92
  0
LINE
  8
0
 10
268
 20
92
 11
285
 21
92
  0
LINE
  8
0
 10
285
 20
92
 11
285
 21
8
  0
LINE
  8
0
 10
285
 20
8
 11
268
 21
8
  0
LINE
  8
0
 10
243
 20
8
 11
243
 21
92
  0
LINE
  8
0
 10
243
 20
92
 11
260
 21
92
  0
LINE
  8
0
 10
260
 20
92
 11
260
 21
8
  0
LINE
  8
0
 10
260
 20
8
 11
243
 21
8
  0
LINE
  8
0
 10
218
 20
8
 11
218
 21
92
  0
LINE
  8
0
 10
218
 20
92
 11
235
 21
92
  0
LINE
  8
0
 10
235
 20
92
 11
235
 21
8
  0
LINE
  8
0
 10
235
 20
8
 11
218
 21
8
  0
LINE
  8
0
 10
237
 20
35
 11
237
 21
39
  0
LINE
  8
0
 10
237
 20
39
 11
241
 21
39
  0
LINE
  8
0
 10
241
 20
39
 11
241
 21
35
  0
LINE
  8
0
 10
241
 20
35
 11
237
 21
35
  0
LINE
  8
0
 10
262
 20
35
 11
262
 21
39
  0
LINE
  8
0
 10
262
 20
39
 11
266
 21
39
  0
LINE
  8
0
 10
266
 20
39
 11
266
 21
35
  0
LINE
  8
0
 10
266
 20
35
 11
262
 21
35
  0
LINE
  8
0
 10
287
 20
35
 11
287
 21
39
  0
LINE
  8
0
 10
287
 20
39
 11
291
 21
39
  0
LINE
  8
0
 10
291
 20
39
 11
291
 21
35
  0
LINE
  8
0
 10
291
 20
35
 11
287
 21
35
  0
LINE
  8
0
 10
312
 20
35
 11
312
 21
39
  0
LINE
  8
0
 10
312
 20
39
 11
316
 21
39
  0
LINE
  8
0
 10
316
 20
39
 11
316
 21
35
  0
LINE
  8
0
 10
316
 20
35
 11
312
 21
35
  0
LINE
  8
0
 10
337
 20
35
 11
337
 21
39
  0
LINE
  8
0
 10
337
 20
39
 11
341
 21
39
  0
LINE
  8
0
 10
341
 20
39
 11
341
 21
35
  0
LINE
  8
0
 10
341
 20
35
 11
337
 21
35
  0
LINE
  8
0
 10
362
 20
35
 11
362
 21
39
  0
LINE
  8
0
 10
362
 20
39
 11
366
 21
39
  0
LINE
  8
0
 10
366
 20
39
 11
366
 21
35
  0
LINE
  8
0
 10
366
 20
35
 11
362
 21
35
  0
LINE
  8
0
 10
387
 20
35
 11
387
 21
39
  0
LINE
  8
0
 10
387
 20
39
 11
391
 21
39
  0
LINE
  8
0
 10
391
 20
39
 11
391
 21
35
  0
LINE
  8
0
 10
391
 20
35
 11
387
 21
35
  0
LINE
  8
0
 10
15.4074
 20
4
 11
23.1111
 21
4
  0
LINE
  8
0
 10
23.1111
 20
4
 11
23.1111
 21
0
  0
LINE
  8
0
 10
23.1111
 20
0
 11
30.8148
 21
0
  0
LINE
  8
0
 10
30.8148
 20
0
 11
30.8148
 21
4
  0
LINE
  8
0
 10
30.8148
 20
4
 11
38.5185
 21
4
  0
LINE
  8
0
 10
38.5185
 20
4
 11
38.5185
 21
0
  0
LINE
  8
0
 10
38.5185
 20
0
 11
46.2222
 21
0
  0
LINE
  8
0
 10
46.2222
 20
0
 11
46.2222
 21
4
  0
LINE
  8
0
 10
46.2222
 20
4
 11
53.9259
 21
4
  0
LINE
  8
0
 10
53.9259
 20
4
 11
53.9259
 21
0
  0
LINE
  8
0
 10
53.9259
 20
0
 11
61.6296
 21
0
  0
LINE
  8
0
 10
61.6296
 20
0
 11
61.6296
 21
4
  0
LINE
  8
0
 10
61.6296
 20
4
 11
69.3333
 21
4
  0
LINE
  8
0
 10
69.3333
 20
4
 11
69.3333
 21
0
  0
LINE
  8
0
 10
69.3333
 20
0
 11
77.037
 21
0
  0
LINE
  8
0
 10
77.037
 20
0
 11
77.037
 21
4
  0
LINE
  8
0
 10
77.037
 20
4
 11
84.7407
 21
4
  0
LINE
  8
0
 10
84.7407
 20
4
 11
84.7407
 21
0
  0
LINE
  8
0
 10
84.7407
 20
0
 11
92.4444
 21
0
  0
LINE
  8
0
 10
92.4444
 20
0
 11
92.4444
 21
4
  0
LINE
  8
0
 10
92.4444
 20
4
 11
100.148
 21
4
  0
LINE
  8
0
 10
100.148
 20
4
 11
100.148
 21
0
  0
LINE
  8
0
 10
100.148
 20
0
 11
107.852
 21
0
  0
LINE
  8
0
 10
107.852
 20
0
 11
107.852
 21
4
  0
LINE
  8
0
 10
107.852
 20
4
 11
115.556
 21
4
  0
LINE
  8
0
 10
115.556
 20
4
 11
115.556
 21
0
  0
LINE
  8
0
 10
115.556
 20
0
 11
123.259
 21
0
  0
LINE
  8
0
 10
123.259
 20
0
 11
123.259
 21
4
  0
LINE
  8
0
 10
123.259
 20
4
 11
130.963
 21
4
  0
LINE
  8
0
 10
130.963
 20
4
 11
130.963
 21
0
  0
LINE
  8
0
 10
130.963
 20
0
 11
138.667
 21
0
  0
LINE
  8
0
 10
138.667
 20
0
 11
138.667
 21
4
  0
LINE
  8
0
 10
138.667
 20
4
 11
146.37
 21
4
  0
LINE
  8
0
 10
146.37
 20
4
 11
146.37
 21
0
  0
LINE
  8
0
 10
146.37
 20
0
 11
154.074
 21
0
  0
LINE
  8
0
 10
154.074
 20
0
 11
154.074
 21
4
  0
LINE
  8
0
 10
154.074
 20
4
 11
161.778
 21
4
  0
LINE
  8
0
 10
161.778
 20
4
 11
161.778
 21
0
  0
LINE
  8
0
 10
161.778
 20
0
 11
169.481
 21
0
  0
LINE
  8
0
 10
169.481
 20
0
 11
169.481
 21
4
  0
LINE
  8
0
 10
169.481
 20
4
 11
177.185
 21
4
  0
LINE
  8
0
 10
177.185
 20
4
 11
177.185
 21
0
  0
LINE
  8
0
 10
177.185
 20
0
 11
184.889
 21
0
  0
LINE
  8
0
 10
184.889
 20
0
 11
184.889
 21
4
  0
LINE
  8
0
 10
184.889
 20
4
 11
192.593
 21
4
  0
LINE
  8
0
 10
192.593
 20
4
 11
192.593
 21
0
  0
LINE
  8
0
 10
192.593
 20
0
 11
200.296
 21
0
  0
LINE
  8
0
 10
200.296
 20
0
 11
200.296
 21
4
  0
LINE
  8
0
 10
200.296
 20
4
 11
208
 21
4
  0
LINE
  8
0
 10
208
 20
4
 11
208
 21
35
  0
LINE
  8
0
 10
208
 20
35
 11
204
 21
35
  0
LINE
  8
0
 10
204
 20
35
 11
204
 21
39
  0
LINE
  8
0
 10
204
 20
39
 11
208
 21
39
  0
LINE
  8
0
 10
208
 20
39
 11
208
 21
96
  0
LINE
  8
0
 10
208
 20
96
 11
200.296
 21
96
  0
LINE
  8
0
 10
200.296
 20
96
 11
200.296
 21
100.01
  0
LINE
  8
0
 10
200.296
 20
100.01
 11
192.593
 21
100.01
  0
LINE
  8
0
 10
192.593
 20
100.01
 11
192.593
 21
96
  0
LINE
  8
0
 10
192.593
 20
96
 11
184.889
 21
96
  0
LINE
  8
0
 10
184.889
 20
96
 11
184.889
 21
100.01
  0
LINE
  8
0
 10
184.889
 20
100.01
 11
177.185
 21
100.01
  0
LINE
  8
0
 10
177.185
 20
100.01
 11
177.185
 21
96
  0
LINE
  8
0
 10
177.185
 20
96
 11
169.481
 21
96
  0
LINE
  8
0
 10
169.481
 20
96
 11
169.481
 21
100.01
  0
LINE
  8
0
 10
169.481
 20
100.01
 11
161.778
 21
100.01
  0
LINE
  8
0
 10
161.778
 20
100.01
 11
161.778
 21
96
  0
LINE
  8
0
 10
161.778
 20
96
 11
154.074
 21
96
  0
LINE
  8
0
 10
154.074
 20
96
 11
154.074
 21
100.01
  0
LINE
  8
0
 10
154.074
 20
100.01
 11
146.37
 21
100.01
  0
LINE
  8
0
 10
146.37
 20
100.01
 11
146.37
 21
96
  0
LINE
  8
0
 10
146.37
 20
96
 11
138.667
 21
96
  0
LINE
  8
0
 10
138.667
 20
96
 11
138.667
 21
100.01
  0
LINE
  8
0
 10
138.667
 20
100.01
 11
130.963
 21
100.01
  0
LINE
  8
0
 10
130.963
 20
100.01
 11
130.963
 21
96
  0
LINE
  8
0
 10
130.963
 20
96
 11
123.259
 21
96
  0
LINE
  8
0
 10
123.259
 20
96
 11
123.259
 21
100.01
  0
LINE
  8
0
 10
123.259
 20
100.01
 11
115.556
 21
100.01
  0
LINE
  8
0
 10
115.556
 20
100.01
 11
115.556
 21
96
  0
LINE
  8
0
 10
115.556
 20
96
 11
107.852
 21
96
  0
LINE
  8
0
 10
107.852
 20
96
 11
107.852
 21
100.01
  0
LINE
  8
0
 10
107.852
 20
100.01
 11
100.148
 21
100.01
  0
LINE
  8
0
 10
100.148
 20
100.01
 11
100.148
 21
96
  0
LINE
  8
0
 10
100.148
 20
96
 11
92.4444
 21
96
  0
LINE
  8
0
 10
92.4444
 20
96
 11
92.4444
 21
100.01
  0
LINE
  8
0
 10
92.4444
 20
100.01
 11
84.7407
 21
100.01
  0
LINE
  8
0
 10
84.7407
 20
100.01
 11
84.7407
 21
96
  0
LINE
  8
0
 10
84.7407
 20
96
 11
77.037
 21
96
  0
LINE
  8
0
 10
77.037
 20
96
 11
77.037
 21
100.01
  0
LINE
  8
0
 10
77.037
 20
100.01
 11
69.3333
 21
100.01
  0
LINE
  8
0
 10
69.3333
 20
100.01
 11
69.3333
 21
96
  0
LINE
  8
0
 10
69.3333
 20
96
 11
61.6296
 21
96
  0
LINE
  8
0
 10
61.6296
 20
96
 11
61.6296
 21
100.01
  0
LINE
  8
0
 10
61.6296
 20
100.01
 11
53.9259
 21
100.01
  0
LINE
  8
0
 10
53.9259
 20
100.01
 11
53.9259
 21
96
  0
LINE
  8
0
 10
53.9259
 20
96
 11
46.2222
 21
96
  0
LINE
  8
0
 10
46.2222
 20
96
 11
46.2222
 21
100.01
  0
LINE
  8
0
 10
46.2222
 20
100.01
 11
38.5185
 21
100.01
  0
LINE
  8
0
 10
38.5185
 20
100.01
 11
38.5185
 21
96
  0
LINE
  8
0
 10
38.5185
 20
96
 11
30.8148
 21
96
  0
LINE
  8
0
 10
30.8148
 20
96
 11
30.8148
 21
100.01
  0
LINE
  8
0
 10
30.8148
 20
100.01
 11
23.1111
 21
100.01
  0
LINE
  8
0
 10
23.1111
 20
100.01
 11
23.1111
 21
96
  0
LINE
  8
0
 10
23.1111
 20
96
 11
15.4074
 21
96
  0
LINE
  8
0
 10
15.4074
 20
96
 11
15.4074
 21
100.01
  0
LINE
  8
0
 10
15.4074
 20
100.01
 11
7.70369
 21
100.01
  0
LINE
  8
0
 10
7.70369
 20
100.01
 11
7.70369
 21
96
  0
LINE
  8
0
 10
7.70369
 20
96
 11
0
 21
96
  0
LINE
  8
0
 10
0
 20
96
 11
0
 21
39
  0
LINE
  8
0
 10
0
 20
39
 11
4
 21
39
  0
LINE
  8
0
 10
4
 20
39
 11
4
 21
35
  0
LINE
  8
0
 10
4
 20
35
 11
0
 21
35
  0
LINE
  8
0
 10
0
 20
35
 11
0
 21
4
  0
LINE
  8
0
 10
0
 20
4
 11
7.70369
 21
4
  0
LINE
  8
0
 10
7.70369
 20
4
 11
7.70369
 21
0
  0
LINE
  8
0
 10
7.70369
 20
0
 11
15.4074
 21
0
  0
LINE
  8
0
 10
15.4074
 20
0
 11
15.4074
 21
4
  0
LINE
  8
0
 10
27
 20
35
 11
27
 21
39
  0
LINE
  8
0
 10
27
 20
39
 11
31
 21
39
  0
LINE
  8
0
 10
31
 20
39
 11
31
 21
35
  0
LINE
  8
0
 10
31
 20
35
 11
27
 21
35
  0
LINE
  8
0
 10
52
 20
35
 11
52
 21
39
  0
LINE
  8
0
 10
52
 20
39
 11
56
 21
39
  0
LINE
  8
0
 10
56
 20
39
 11
56
 21
35
  0
LINE
  8
0
 10
56
 20
35
 11
52
 21
35
  0
LINE
  8
0
 10
77
 20
35
 11
77
 21
39
  0
LINE
  8
0
 10
77
 20
39
 11
81
 21
39
  0
LINE
  8
0
 10
81
 20
39
 11
81
 21
35
  0
LINE
  8
0
 10
81
 20
35
 11
77
 21
35
  0
LINE
  8
0
 10
102
 20
35
 11
102
 21
39
  0
LINE
  8
0
 10
102
 20
39
 11
106
 21
39
  0
LINE
  8
0
 10
106
 20
39
 11
106
 21
35
  0
LINE
  8
0
 10
106
 20
35
 11
102
 21
35
  0
LINE
  8
0
 10
127
 20
35
 11
127
 21
39
  0
LINE
  8
0
 10
127
 20
39
 11
131
 21
39
  0
LINE
  8
0
 10
131
 20
39
 11
131
 21
35
  0
LINE
  8
0
 10
131
 20
35
 11
127
 21
35
  0
LINE
  8
0
 10
152
 20
35
 11
152
 21
39
  0
LINE
  8
0
 10
152
 20
39
 11
156
 21
39
  0
LINE
  8
0
 10
156
 20
39
 11
156
 21
35
  0
LINE
  8
0
 10
156
 20
35
 11
152
 21
35
  0
LINE
  8
0
 10
177
 20
35
 11
177
 21
39
  0
LINE
  8
0
 10
177
 20
39
 11
181
 21
39
  0
LINE
  8
0
 10
181
 20
39
 11
181
 21
35
  0
LINE
  8
0
 10
181
 20
35
 11
177
 21
35
  0
ENDSEC
  0
SECTION
  2
OBJECTS
  0
DICTIONARY
  0
ENDSEC
  0
EOF
